<svg id="svg" version="1.1" xmlns="http://www.w3.org/2000/svg" xmlns:xlink="http://www.w3.org/1999/xlink" width="400" height="400" viewBox="0, 0, 400,400"><g id="svgg"><path id="path0" d="M42.703 151.030 C 42.412 151.321,42.730 152.352,44.791 157.800 C 45.706 160.220,46.731 163.010,47.067 164.000 C 47.404 164.990,49.209 169.940,51.077 175.000 C 52.946 180.060,54.835 185.190,55.276 186.400 C 55.717 187.610,56.224 188.960,56.402 189.400 C 57.424 191.920,59.035 196.232,60.064 199.200 C 61.106 202.206,63.080 207.524,63.999 209.800 C 64.552 211.170,65.889 214.848,67.198 218.600 C 67.889 220.580,68.611 222.560,68.803 223.000 C 69.462 224.512,73.513 235.402,74.383 238.000 C 74.861 239.430,75.404 240.960,75.589 241.400 C 76.076 242.557,77.127 245.338,78.455 248.981 C 80.469 254.507,79.200 254.000,91.016 254.000 L 101.213 254.000 101.862 252.500 C 102.917 250.062,103.086 249.604,104.631 245.000 C 106.033 240.823,107.394 237.013,110.060 229.800 C 110.711 228.040,111.759 225.070,112.389 223.200 C 113.020 221.330,114.103 218.270,114.797 216.400 C 116.454 211.935,117.609 208.714,119.389 203.600 C 121.668 197.051,122.913 193.748,123.647 192.305 C 123.841 191.923,124.000 191.259,124.000 190.829 C 124.000 190.399,124.180 189.936,124.400 189.800 C 124.620 189.664,124.800 189.201,124.800 188.771 C 124.800 188.341,124.976 187.677,125.191 187.295 C 125.406 186.913,126.022 185.250,126.560 183.600 C 127.098 181.950,128.199 178.890,129.006 176.800 C 129.814 174.710,130.803 172.010,131.206 170.800 C 132.138 167.996,135.597 158.254,136.958 154.602 C 138.489 150.492,138.984 150.800,130.849 150.800 C 123.020 150.800,123.330 150.704,122.437 153.400 C 121.758 155.451,119.260 162.354,118.818 163.400 C 118.633 163.840,118.264 164.830,118.000 165.600 C 117.736 166.370,117.365 167.360,117.176 167.800 C 116.988 168.240,116.389 169.950,115.846 171.600 C 115.303 173.250,114.110 176.670,113.195 179.200 C 112.280 181.730,110.455 186.860,109.138 190.600 C 107.821 194.340,106.594 197.760,106.411 198.200 C 106.228 198.640,105.683 200.080,105.200 201.400 C 104.717 202.720,104.168 204.160,103.979 204.600 C 103.790 205.040,102.747 208.010,101.661 211.200 C 99.786 216.708,98.741 219.612,97.989 221.400 C 97.804 221.840,97.424 222.920,97.145 223.800 C 96.865 224.680,96.493 225.571,96.318 225.780 C 96.143 225.989,96.000 226.372,96.000 226.631 C 96.000 228.375,94.747 230.076,93.977 229.379 C 93.550 228.993,93.200 228.458,93.200 228.191 C 93.200 227.925,92.856 226.828,92.436 225.753 C 91.573 223.550,84.964 205.648,84.331 203.800 C 84.104 203.140,83.775 202.240,83.599 201.800 C 83.422 201.360,82.883 199.920,82.400 198.600 C 81.917 197.280,81.375 195.840,81.194 195.400 C 81.014 194.960,80.199 192.800,79.384 190.600 C 78.568 188.400,77.752 186.240,77.570 185.800 C 77.389 185.360,76.979 184.190,76.659 183.200 C 76.150 181.627,74.572 177.394,73.602 175.000 C 73.247 174.124,73.071 173.647,68.574 161.400 C 66.877 156.780,65.239 152.505,64.934 151.900 L 64.379 150.800 53.656 150.800 C 47.759 150.800,42.830 150.904,42.703 151.030 M151.200 182.307 C 151.200 211.627,151.540 224.874,152.368 227.800 C 152.555 228.460,152.930 230.080,153.202 231.400 C 155.283 241.506,165.209 251.234,176.600 254.331 C 187.838 257.387,202.892 257.036,211.200 253.524 C 220.449 249.614,226.950 243.144,229.349 235.461 C 231.791 227.637,231.789 227.675,231.795 187.600 L 231.800 151.000 222.700 150.892 L 213.600 150.785 213.592 186.692 C 213.584 223.335,213.548 224.363,212.080 230.000 C 207.476 247.672,177.896 246.667,173.917 228.704 C 172.784 223.590,172.689 220.699,172.537 186.500 L 172.379 150.800 161.790 150.800 L 151.200 150.800 151.200 182.307 " stroke="none" fill="#070707" fill-rule="evenodd"></path><path id="path1" d="M289.400 120.272 C 285.807 122.190,277.367 130.361,272.947 136.200 C 264.769 147.006,259.890 157.569,256.411 172.000 C 254.297 180.768,253.965 194.374,255.643 203.400 C 256.811 209.677,257.697 213.150,259.472 218.400 C 261.239 223.627,261.565 223.922,261.584 220.310 C 261.598 217.575,262.637 212.138,263.592 209.800 C 263.772 209.360,264.154 208.370,264.440 207.600 C 264.726 206.830,265.465 205.337,266.080 204.282 C 267.414 201.998,267.444 201.618,266.400 200.291 C 265.251 198.831,265.374 198.276,266.800 198.485 C 267.460 198.582,268.000 198.625,268.000 198.580 C 268.000 198.535,267.730 197.851,267.400 197.062 C 266.318 194.471,267.343 193.953,269.816 195.840 C 271.125 196.838,271.260 196.859,273.180 196.367 C 274.736 195.968,275.382 195.959,276.090 196.328 C 276.590 196.589,277.990 196.982,279.200 197.200 C 281.575 197.629,283.200 198.957,283.200 200.469 C 283.200 201.145,283.039 201.240,282.300 200.995 C 280.372 200.356,277.766 200.318,277.266 200.921 C 276.862 201.407,276.963 201.554,277.857 201.778 C 281.119 202.597,280.875 203.386,277.200 203.900 L 275.000 204.208 274.800 207.940 C 274.610 211.487,274.540 211.722,273.400 212.683 C 268.567 216.753,266.400 218.972,266.400 219.852 C 266.400 221.237,267.075 221.027,269.295 218.950 C 271.057 217.302,271.338 217.166,271.875 217.704 C 272.901 218.729,272.385 219.311,263.312 227.364 C 262.396 228.177,262.000 228.880,262.000 229.693 L 262.000 230.858 263.055 230.029 C 263.635 229.572,265.840 227.611,267.955 225.669 C 281.216 213.496,282.722 212.480,283.774 215.000 C 284.733 217.295,286.068 217.050,289.980 213.861 C 291.641 212.508,293.090 211.305,293.200 211.188 C 294.542 209.769,304.070 203.971,308.200 202.062 C 309.740 201.350,311.333 200.583,311.739 200.356 C 312.370 200.004,313.248 200.153,312.767 200.531 C 312.145 201.018,308.463 203.471,305.600 205.306 C 299.318 209.331,297.239 211.830,298.387 213.977 C 298.968 215.062,299.906 215.015,302.635 213.767 C 306.148 212.160,308.367 211.609,311.346 211.604 C 315.485 211.598,318.122 209.875,317.413 207.640 C 317.028 206.429,325.456 204.009,333.586 202.995 C 338.190 202.422,339.200 201.808,339.200 199.583 C 339.200 198.081,338.325 197.822,333.640 197.936 C 327.586 198.083,330.382 196.548,340.800 194.005 C 341.570 193.817,343.640 193.275,345.400 192.800 C 347.160 192.325,349.230 191.788,350.000 191.605 C 350.770 191.423,352.659 190.897,354.199 190.437 C 355.738 189.977,357.030 189.600,357.070 189.600 C 358.242 189.600,358.847 186.146,357.749 185.725 C 356.069 185.080,341.298 186.557,334.800 188.019 C 325.264 190.164,325.982 189.360,338.845 183.486 C 341.532 182.259,351.686 178.834,356.303 177.596 C 360.444 176.486,361.600 175.639,361.600 173.712 L 361.600 172.282 358.300 172.541 C 356.485 172.684,353.740 172.898,352.200 173.018 L 349.400 173.236 353.200 171.372 C 356.894 169.559,366.292 165.602,366.904 165.601 C 368.564 165.598,370.800 163.817,370.800 162.498 L 370.800 161.085 367.900 161.327 C 366.305 161.461,364.325 161.690,363.500 161.837 C 361.227 162.242,361.634 161.392,364.300 160.165 C 367.384 158.746,375.348 156.144,377.668 155.798 C 381.726 155.192,382.719 151.679,379.000 151.087 C 376.139 150.631,366.578 151.332,361.200 152.391 C 356.870 153.243,356.658 153.253,357.229 152.565 C 357.518 152.216,359.147 151.231,360.847 150.376 C 364.056 148.763,364.683 147.983,364.228 146.171 C 363.906 144.885,359.797 145.087,358.220 146.467 C 358.011 146.650,357.527 146.800,357.144 146.800 C 355.449 146.800,341.143 153.405,333.800 157.578 C 328.227 160.745,319.918 166.186,314.682 170.096 C 311.766 172.274,310.279 173.467,305.831 177.200 C 300.328 181.819,293.480 188.627,286.751 196.169 C 286.343 196.626,284.400 195.803,284.400 195.173 C 284.400 194.929,284.940 193.563,285.600 192.137 C 286.260 190.711,286.800 189.470,286.800 189.378 C 286.800 189.287,287.340 188.098,288.000 186.735 C 290.755 181.048,288.415 178.362,284.433 182.640 C 281.995 185.259,281.656 185.200,282.564 182.316 C 283.606 179.009,285.172 175.600,288.433 169.538 C 290.750 165.232,290.076 162.423,287.133 164.113 C 285.399 165.108,285.651 164.422,289.600 157.400 C 293.433 150.583,293.662 149.847,292.381 148.472 C 291.462 147.485,290.847 147.653,288.954 149.407 C 287.872 150.411,287.200 150.668,287.200 150.078 C 287.200 149.410,292.606 141.595,293.617 140.800 C 294.617 140.015,296.400 136.884,296.400 135.914 C 296.400 131.908,294.616 132.287,289.409 137.400 C 287.057 139.710,285.058 141.600,284.966 141.600 C 283.917 141.600,285.965 137.649,290.690 130.557 L 294.514 124.818 294.270 122.763 C 293.909 119.717,292.138 118.811,289.400 120.272 M277.017 141.876 C 276.868 142.467,276.431 143.412,276.044 143.976 C 275.477 144.804,270.038 156.640,268.774 159.800 C 268.065 161.571,265.946 167.782,263.758 174.500 C 262.486 178.405,261.301 181.600,261.123 181.600 C 260.687 181.600,260.714 179.426,261.172 177.646 C 261.376 176.851,261.756 175.120,262.015 173.800 C 262.274 172.480,262.625 170.950,262.796 170.400 C 262.967 169.850,263.332 168.590,263.607 167.600 C 265.972 159.088,271.931 146.887,276.254 141.705 C 277.222 140.545,277.344 140.572,277.017 141.876 M347.585 161.900 C 347.576 162.065,345.461 163.223,342.885 164.473 C 338.781 166.465,332.538 169.835,327.369 172.849 C 324.183 174.707,321.084 176.667,312.978 181.951 C 301.872 189.190,301.692 188.265,312.600 180.017 C 325.037 170.612,347.742 158.855,347.585 161.900 M271.977 183.298 C 270.475 187.636,270.679 187.282,269.857 186.967 C 268.630 186.496,269.384 183.808,271.729 180.296 C 273.460 177.702,273.547 178.759,271.977 183.298 M311.475 215.842 C 310.106 216.584,310.233 217.207,311.912 218.000 C 313.357 218.682,313.615 219.600,312.362 219.600 C 311.435 219.600,309.200 218.408,309.200 217.914 C 309.200 217.741,308.930 217.600,308.600 217.600 C 306.829 217.600,308.801 221.468,311.087 222.480 C 313.204 223.416,314.844 223.033,316.609 221.191 C 320.656 216.967,326.902 224.459,323.680 229.672 C 320.456 234.887,315.398 233.746,307.400 226.000 C 299.747 218.588,297.765 218.131,286.363 221.149 C 282.889 222.068,279.167 222.808,277.963 222.818 C 274.696 222.845,273.593 223.576,265.802 230.875 L 263.800 232.751 263.800 240.475 C 263.800 250.674,263.431 251.469,258.940 250.941 L 256.745 250.683 256.872 252.242 L 257.000 253.800 260.600 253.901 L 264.200 254.002 266.307 249.501 C 267.466 247.025,268.411 244.799,268.407 244.553 C 268.383 242.982,270.887 238.889,271.382 239.691 C 272.789 241.970,274.997 244.372,276.751 245.530 C 280.645 248.102,279.903 251.870,275.695 250.893 C 273.207 250.315,272.417 250.908,273.189 252.774 C 273.752 254.133,279.368 254.708,280.279 253.500 C 282.104 251.079,282.412 243.307,280.738 241.896 C 277.833 239.447,278.116 238.059,281.900 236.195 C 283.605 235.355,285.679 234.221,286.508 233.675 C 287.338 233.129,288.066 232.754,288.127 232.841 C 288.634 233.566,289.200 235.451,289.200 236.415 C 289.200 238.348,290.576 241.378,292.558 243.812 C 294.615 246.338,294.647 246.813,292.912 249.127 C 291.500 251.012,290.337 251.456,288.274 250.900 C 286.126 250.320,285.308 250.923,285.886 252.661 C 286.478 254.441,292.648 254.642,293.670 252.914 C 294.033 252.301,295.219 250.596,296.306 249.125 C 299.383 244.960,299.556 244.311,298.046 242.592 C 296.635 240.984,296.283 237.660,297.367 236.177 C 298.032 235.269,297.912 235.151,299.410 238.192 C 300.915 241.247,303.112 243.374,305.627 244.209 C 308.086 245.026,308.596 245.854,307.955 247.991 C 307.247 250.355,306.179 251.334,304.649 251.019 C 301.383 250.346,300.790 250.711,301.372 253.032 C 301.605 253.958,301.757 254.000,304.908 253.997 L 308.200 253.993 309.541 250.697 C 310.278 248.883,311.044 247.086,311.242 246.702 C 311.719 245.782,311.809 241.470,311.354 241.318 C 308.265 240.282,307.415 239.093,306.811 234.960 C 306.588 233.442,306.285 231.483,306.136 230.606 C 305.872 229.052,305.886 229.027,306.694 229.606 C 312.687 233.900,314.692 234.800,318.265 234.800 C 328.771 234.800,329.813 219.518,319.396 218.217 C 317.814 218.019,317.018 217.694,316.499 217.036 C 315.047 215.189,313.401 214.798,311.475 215.842 " stroke="none" fill="#0a8ece" fill-rule="evenodd"></path><path id="path2" d="M0.000 200.000 L 0.000 400.000 200.000 400.000 L 400.000 400.000 400.000 200.000 L 400.000 0.000 200.000 0.000 L 0.000 0.000 0.000 200.000 M293.227 119.214 C 294.181 119.725,295.201 122.070,295.199 123.749 C 295.197 125.124,294.464 126.486,291.617 130.400 C 289.024 133.964,286.688 137.868,286.858 138.349 C 286.936 138.569,288.511 137.320,290.358 135.574 C 293.841 132.282,294.956 131.799,296.082 133.100 C 297.945 135.253,297.377 137.057,293.162 142.382 C 289.133 147.472,289.122 147.495,290.908 147.287 C 294.693 146.845,294.619 149.893,290.678 156.774 C 287.302 162.669,287.251 162.800,288.377 162.800 C 290.907 162.800,290.976 166.318,288.535 170.800 C 285.923 175.595,284.840 177.835,283.256 181.719 C 282.579 183.380,282.684 183.440,283.945 182.121 C 287.245 178.667,289.600 179.012,289.600 182.949 C 289.600 184.679,289.196 185.817,286.556 191.536 C 283.774 197.558,284.517 197.158,294.130 187.455 C 301.047 180.474,303.976 177.757,308.719 173.922 C 311.288 171.845,319.189 166.014,320.300 165.375 C 321.015 164.964,321.600 164.486,321.600 164.314 C 321.600 164.141,321.808 164.000,322.062 164.000 C 322.316 164.000,323.099 163.562,323.801 163.027 C 325.808 161.495,336.647 155.153,340.400 153.313 C 349.979 148.618,352.878 147.406,359.828 145.191 C 365.536 143.373,367.365 147.790,362.073 150.610 L 360.200 151.608 362.600 151.446 C 363.920 151.358,367.250 151.068,370.000 150.803 C 375.440 150.278,380.513 150.464,381.424 151.220 C 383.210 152.702,381.396 155.702,378.303 156.380 C 372.422 157.669,368.804 158.780,366.506 160.004 L 365.213 160.692 367.918 160.499 C 371.133 160.269,371.846 160.764,371.437 162.945 C 371.160 164.421,370.131 165.086,365.400 166.845 C 364.080 167.336,361.920 168.216,360.600 168.800 C 359.280 169.384,356.946 170.386,355.413 171.028 C 352.361 172.305,352.679 172.685,356.249 172.025 C 361.297 171.092,362.694 171.620,362.264 174.303 C 361.965 176.173,360.926 177.038,358.052 177.811 C 351.158 179.664,347.974 180.703,342.104 183.017 C 334.093 186.173,332.000 187.118,332.000 187.578 C 332.000 187.780,332.567 187.798,333.300 187.620 C 342.199 185.456,357.055 184.183,358.469 185.462 C 361.099 187.843,358.694 190.063,351.600 191.802 C 349.290 192.368,346.860 192.980,346.200 193.161 C 345.540 193.343,344.190 193.710,343.200 193.977 C 334.499 196.325,332.671 197.106,335.793 197.143 C 339.596 197.189,341.006 198.892,339.343 201.430 C 338.368 202.918,337.560 203.212,332.662 203.852 C 330.208 204.173,326.490 204.898,324.400 205.463 C 322.310 206.028,320.105 206.580,319.500 206.691 C 318.748 206.828,318.400 207.136,318.400 207.665 C 318.400 210.184,316.053 212.000,312.797 212.000 C 309.582 212.000,304.849 213.189,302.123 214.682 C 299.953 215.870,299.047 215.840,298.029 214.546 C 296.448 212.536,297.135 210.792,300.558 208.123 C 301.901 207.076,303.060 206.080,303.133 205.910 C 303.207 205.739,303.552 205.600,303.900 205.600 C 304.248 205.600,304.420 205.486,304.281 205.348 C 303.577 204.644,295.773 209.778,289.488 215.079 C 286.215 217.839,283.200 217.883,283.200 215.171 C 283.200 213.966,281.990 214.243,280.012 215.901 C 278.420 217.236,271.687 223.147,270.565 224.194 C 270.326 224.417,268.632 225.950,266.800 227.600 C 264.968 229.250,263.224 230.842,262.924 231.139 C 262.069 231.985,261.200 231.380,261.200 229.938 C 261.200 228.573,262.616 227.018,269.026 221.344 C 270.552 219.993,271.674 218.757,271.519 218.597 C 271.247 218.314,270.892 218.541,267.868 220.934 C 266.163 222.284,265.598 222.069,265.607 220.076 C 265.613 218.702,265.902 218.351,269.783 215.000 L 273.953 211.400 273.977 208.074 C 274.007 203.728,274.303 203.201,276.714 203.197 L 278.600 203.195 277.400 202.404 C 275.122 200.902,277.579 199.115,280.726 199.984 C 282.324 200.425,282.608 200.319,282.260 199.411 C 281.706 197.968,278.434 197.566,277.209 198.791 C 276.076 199.924,275.054 199.431,275.360 197.899 C 275.616 196.619,275.278 196.572,271.911 197.416 C 271.068 197.627,270.540 197.452,269.580 196.645 C 267.852 195.191,267.542 195.334,268.225 197.272 C 268.840 199.013,268.511 199.771,267.336 199.320 C 266.624 199.047,266.660 199.415,267.466 200.645 C 268.114 201.633,268.080 201.767,266.266 205.371 C 265.240 207.412,264.400 209.367,264.400 209.717 C 264.400 210.067,264.241 210.451,264.046 210.571 C 263.851 210.692,263.591 211.287,263.466 211.895 C 263.342 212.503,263.031 213.990,262.776 215.200 C 262.521 216.410,262.197 218.916,262.056 220.768 C 261.915 222.621,261.620 224.195,261.400 224.267 C 260.656 224.509,257.167 214.399,256.061 208.800 C 255.822 207.590,255.516 206.060,255.381 205.400 C 252.528 191.478,254.255 172.309,259.578 158.800 C 265.191 144.557,273.151 133.075,284.119 123.399 C 288.667 119.386,291.293 118.180,293.227 119.214 M66.561 153.400 C 68.675 159.190,72.042 168.185,72.400 169.000 C 72.593 169.440,73.141 170.970,73.617 172.400 C 74.093 173.830,74.631 175.360,74.813 175.800 C 74.994 176.240,75.591 177.860,76.138 179.400 C 77.983 184.591,82.054 195.394,82.428 196.095 C 82.633 196.477,82.800 197.064,82.800 197.400 C 82.800 197.736,82.959 198.323,83.153 198.705 C 83.636 199.655,84.165 200.971,85.200 203.800 C 85.683 205.120,86.239 206.560,86.436 207.000 C 86.633 207.440,87.787 210.590,89.000 214.000 C 90.213 217.410,91.385 220.605,91.603 221.100 C 92.406 222.921,92.759 223.836,93.260 225.400 C 94.181 228.271,94.578 228.583,95.152 226.883 C 95.428 226.067,95.811 225.040,96.004 224.600 C 96.197 224.160,97.110 221.550,98.035 218.800 C 98.959 216.050,100.421 212.012,101.284 209.826 C 102.146 207.641,103.663 203.411,104.654 200.426 C 105.645 197.442,107.275 192.840,108.275 190.200 C 109.275 187.560,110.980 182.790,112.064 179.600 C 113.149 176.410,114.208 173.395,114.418 172.900 C 115.654 169.988,116.441 167.831,118.639 161.330 C 119.667 158.288,120.694 155.350,120.921 154.800 C 121.148 154.250,121.630 152.990,121.993 152.000 L 122.652 150.200 130.597 150.091 C 134.967 150.032,138.677 150.122,138.840 150.291 C 139.113 150.574,137.086 157.238,135.188 162.300 C 134.754 163.455,134.022 165.435,133.561 166.700 C 133.100 167.965,132.564 169.360,132.370 169.800 C 132.177 170.240,131.134 173.210,130.054 176.400 C 128.263 181.688,127.288 184.410,126.402 186.600 C 125.622 188.526,124.296 192.242,122.261 198.200 C 121.059 201.720,119.801 205.239,119.466 206.021 C 118.806 207.557,116.949 212.794,115.359 217.600 C 114.813 219.250,114.212 220.960,114.024 221.400 C 113.835 221.840,113.464 222.830,113.200 223.600 C 112.936 224.370,112.575 225.360,112.399 225.800 C 111.086 229.075,107.188 240.216,106.904 241.506 C 106.794 242.004,106.546 242.510,106.352 242.630 C 106.159 242.749,106.000 243.115,106.000 243.443 C 106.000 243.771,105.640 244.784,105.200 245.694 C 104.760 246.605,104.400 247.666,104.400 248.052 C 104.400 248.437,104.220 248.864,104.000 249.000 C 103.780 249.136,103.600 249.599,103.600 250.029 C 103.600 250.459,103.439 251.123,103.243 251.505 C 103.047 251.887,102.691 252.695,102.452 253.300 L 102.017 254.400 90.832 254.400 C 83.908 254.400,79.554 254.250,79.403 254.005 C 79.132 253.566,77.074 247.990,76.153 245.200 C 75.827 244.210,75.407 243.040,75.220 242.600 C 75.034 242.160,74.661 241.170,74.393 240.400 C 74.125 239.630,73.567 238.237,73.153 237.304 C 72.739 236.372,72.400 235.347,72.400 235.028 C 72.400 234.709,72.241 234.349,72.048 234.230 C 71.854 234.110,71.605 233.604,71.495 233.106 C 71.295 232.206,69.054 225.733,68.412 224.200 C 68.227 223.760,67.502 221.870,66.800 220.000 C 66.098 218.130,65.379 216.240,65.202 215.800 C 65.025 215.360,64.695 214.460,64.469 213.800 C 62.959 209.401,61.495 205.282,61.199 204.600 C 60.694 203.436,58.299 197.140,56.851 193.171 C 56.163 191.285,55.600 189.451,55.600 189.095 C 55.600 188.739,55.420 188.336,55.200 188.200 C 54.980 188.064,54.800 187.513,54.800 186.976 C 54.800 186.439,54.620 186.000,54.400 186.000 C 54.180 186.000,54.000 185.728,54.000 185.395 C 54.000 185.062,53.834 184.477,53.632 184.095 C 53.430 183.713,52.872 182.320,52.393 181.000 C 51.914 179.680,51.374 178.240,51.193 177.800 C 50.861 176.992,49.076 172.012,48.326 169.800 C 48.102 169.140,47.733 168.150,47.506 167.600 C 47.279 167.050,46.937 166.195,46.746 165.700 C 46.556 165.205,46.238 164.395,46.040 163.900 C 45.843 163.405,45.464 162.370,45.200 161.600 C 44.936 160.830,44.566 159.840,44.378 159.400 C 43.480 157.296,41.600 151.450,41.600 150.762 C 41.600 150.012,41.963 149.991,53.497 150.094 L 65.393 150.200 66.561 153.400 M172.957 150.633 C 173.091 150.981,173.219 165.966,173.242 183.933 C 173.287 218.058,173.617 227.285,174.841 228.580 C 175.038 228.789,175.200 229.250,175.200 229.605 C 175.200 235.653,184.441 241.739,193.600 241.725 C 205.518 241.706,210.644 236.455,212.770 222.093 C 213.051 220.192,213.200 207.206,213.200 184.585 L 213.200 149.986 222.900 150.093 L 232.600 150.200 232.719 186.000 C 232.859 227.955,232.609 231.620,229.134 238.524 C 222.300 252.102,207.905 258.512,187.937 256.870 C 181.277 256.322,179.104 256.017,178.620 255.559 C 178.411 255.362,177.884 255.200,177.448 255.200 C 176.611 255.200,174.593 254.608,172.600 253.777 C 171.940 253.501,170.714 252.994,169.875 252.648 C 167.927 251.846,162.484 248.016,160.501 246.053 C 155.820 241.418,153.115 236.224,152.038 229.800 C 151.779 228.260,151.367 226.010,151.121 224.800 C 150.632 222.390,150.129 153.771,150.583 151.352 L 150.836 150.000 161.775 150.000 C 171.381 150.000,172.744 150.077,172.957 150.633 M269.720 153.658 C 267.611 157.926,265.066 164.490,264.005 168.400 C 263.737 169.390,263.355 170.613,263.158 171.119 C 262.961 171.624,262.810 172.704,262.823 173.519 C 262.841 174.682,263.213 173.884,264.557 169.800 C 265.498 166.940,267.479 161.575,268.960 157.878 C 271.926 150.472,272.288 148.464,269.720 153.658 M337.800 165.600 C 337.664 165.820,337.203 166.000,336.776 166.000 C 336.349 166.000,336.000 166.180,336.000 166.400 C 336.000 166.620,335.655 166.800,335.233 166.800 C 334.812 166.800,334.407 166.942,334.333 167.116 C 334.260 167.290,333.210 167.913,332.000 168.501 C 327.072 170.894,318.622 176.064,315.000 178.901 C 311.860 181.361,312.585 181.487,316.096 179.091 C 319.309 176.899,333.349 168.547,337.000 166.655 C 338.761 165.743,339.475 165.204,338.924 165.203 C 338.442 165.201,337.936 165.380,337.800 165.600 M262.000 176.400 C 262.000 177.060,262.070 177.600,262.155 177.600 C 262.240 177.600,262.388 177.060,262.485 176.400 C 262.582 175.740,262.513 175.200,262.331 175.200 C 262.149 175.200,262.000 175.740,262.000 176.400 M270.045 185.300 C 269.648 186.489,269.662 186.534,270.205 185.824 C 270.532 185.396,270.800 184.811,270.800 184.524 C 270.800 183.632,270.497 183.943,270.045 185.300 M316.628 216.200 C 317.736 217.215,318.523 217.600,319.491 217.600 C 325.932 217.600,329.687 225.998,325.815 231.743 C 323.747 234.812,317.611 236.462,314.198 234.867 C 313.649 234.610,312.705 234.183,312.100 233.919 C 311.495 233.654,310.127 232.832,309.061 232.091 C 306.766 230.498,306.768 230.497,307.212 232.801 C 308.551 239.755,308.322 239.195,310.147 239.977 C 313.182 241.278,313.248 242.886,310.556 249.904 C 308.722 254.683,308.593 254.800,305.145 254.800 C 301.082 254.800,299.372 253.069,300.799 250.402 C 301.288 249.488,301.274 249.489,304.831 250.250 C 305.998 250.500,306.911 249.464,307.347 247.394 C 307.671 245.857,307.374 245.487,305.274 244.811 C 302.885 244.041,300.252 241.595,298.950 238.934 C 297.925 236.838,297.833 236.757,297.497 237.649 C 296.913 239.202,297.458 241.233,298.786 242.446 C 300.466 243.980,300.417 244.151,296.700 249.685 L 293.400 254.600 290.116 254.716 C 286.503 254.843,285.504 254.352,284.958 252.176 C 284.475 250.250,285.707 249.668,289.091 250.225 C 292.466 250.780,294.501 247.007,292.207 244.450 C 290.382 242.416,289.364 240.232,288.663 236.844 C 287.911 233.212,288.005 233.286,285.928 234.696 C 284.978 235.342,283.165 236.370,281.900 236.982 C 280.635 237.593,279.600 238.352,279.600 238.667 C 279.600 239.489,280.751 241.600,281.200 241.600 C 283.568 241.600,282.732 252.830,280.240 254.494 C 279.167 255.210,274.055 254.825,273.256 253.968 C 271.515 252.099,272.427 249.137,274.520 249.865 C 278.115 251.116,280.099 248.113,276.835 246.363 C 275.189 245.480,272.980 243.405,272.083 241.900 C 270.929 239.964,269.971 240.809,268.972 244.643 C 268.665 245.821,267.691 248.204,266.807 249.939 C 265.923 251.673,265.200 253.291,265.200 253.532 C 265.200 254.708,259.020 255.374,257.191 254.395 C 254.396 252.899,256.057 249.857,259.470 250.222 L 262.002 250.493 262.626 248.999 C 263.129 247.795,263.234 246.042,263.165 240.002 L 263.078 232.501 265.039 230.691 C 272.355 223.938,274.448 222.401,276.358 222.379 C 278.622 222.353,282.757 221.578,287.000 220.385 C 297.478 217.438,300.469 218.174,307.818 225.507 C 314.916 232.590,319.373 233.832,322.795 229.679 C 326.698 224.945,320.774 217.720,316.496 221.998 C 314.536 223.958,312.211 224.209,310.000 222.700 C 307.266 220.834,306.191 216.517,308.500 216.675 C 309.105 216.717,309.600 216.587,309.600 216.388 C 309.600 214.488,314.612 214.353,316.628 216.200 " stroke="none" fill="#fbfbfb" fill-rule="evenodd"></path><path id="path3" d="M288.719 119.903 C 281.571 124.071,269.699 137.844,264.662 147.814 C 259.058 158.906,257.271 164.031,255.253 174.800 C 253.636 183.427,253.693 197.165,255.381 205.400 C 255.516 206.060,255.822 207.590,256.061 208.800 C 257.167 214.399,260.656 224.509,261.400 224.267 C 261.620 224.195,261.915 222.621,262.056 220.768 C 262.197 218.916,262.521 216.410,262.776 215.200 C 263.031 213.990,263.342 212.503,263.466 211.895 C 263.591 211.287,263.851 210.692,264.046 210.571 C 264.241 210.451,264.400 210.067,264.400 209.717 C 264.400 209.367,265.240 207.412,266.266 205.371 C 268.080 201.767,268.114 201.633,267.466 200.645 C 266.660 199.415,266.624 199.047,267.336 199.320 C 268.511 199.771,268.840 199.013,268.225 197.272 C 267.542 195.334,267.852 195.191,269.580 196.645 C 270.540 197.452,271.068 197.627,271.911 197.416 C 275.278 196.572,275.616 196.619,275.360 197.899 C 275.054 199.431,276.076 199.924,277.209 198.791 C 278.434 197.566,281.706 197.968,282.260 199.411 C 282.608 200.319,282.324 200.425,280.726 199.984 C 277.579 199.115,275.122 200.902,277.400 202.404 L 278.600 203.195 276.714 203.197 C 274.303 203.201,274.007 203.728,273.977 208.074 L 273.953 211.400 269.783 215.000 C 265.902 218.351,265.613 218.702,265.607 220.076 C 265.598 222.069,266.163 222.284,267.868 220.934 C 270.892 218.541,271.247 218.314,271.519 218.597 C 271.674 218.757,270.552 219.993,269.026 221.344 C 262.616 227.018,261.200 228.573,261.200 229.938 C 261.200 231.380,262.069 231.985,262.924 231.139 C 263.224 230.842,264.968 229.250,266.800 227.600 C 268.632 225.950,270.326 224.417,270.565 224.194 C 271.687 223.147,278.420 217.236,280.012 215.901 C 281.990 214.243,283.200 213.966,283.200 215.171 C 283.200 217.883,286.215 217.839,289.488 215.079 C 295.773 209.778,303.577 204.644,304.281 205.348 C 304.420 205.486,304.248 205.600,303.900 205.600 C 303.552 205.600,303.207 205.739,303.133 205.910 C 303.060 206.080,301.901 207.076,300.558 208.123 C 297.135 210.792,296.448 212.536,298.029 214.546 C 299.047 215.840,299.953 215.870,302.123 214.682 C 304.849 213.189,309.582 212.000,312.797 212.000 C 316.053 212.000,318.400 210.184,318.400 207.665 C 318.400 207.136,318.748 206.828,319.500 206.691 C 320.105 206.580,322.310 206.028,324.400 205.463 C 326.490 204.898,330.208 204.173,332.662 203.852 C 337.560 203.212,338.368 202.918,339.343 201.430 C 341.006 198.892,339.596 197.189,335.793 197.143 C 332.671 197.106,334.499 196.325,343.200 193.977 C 344.190 193.710,345.540 193.343,346.200 193.161 C 346.860 192.980,349.290 192.368,351.600 191.802 C 357.122 190.448,357.928 190.099,358.619 188.764 C 360.537 185.055,358.302 184.231,349.000 185.216 C 343.647 185.783,336.107 186.937,333.300 187.620 C 326.758 189.210,343.894 181.791,352.200 179.437 C 354.180 178.875,356.814 178.144,358.052 177.811 C 360.926 177.038,361.965 176.173,362.264 174.303 C 362.694 171.620,361.297 171.092,356.249 172.025 C 352.679 172.685,352.361 172.305,355.413 171.028 C 356.946 170.386,359.280 169.384,360.600 168.800 C 361.920 168.216,364.080 167.336,365.400 166.845 C 370.131 165.086,371.160 164.421,371.437 162.945 C 371.846 160.764,371.133 160.269,367.918 160.499 L 365.213 160.692 366.506 160.004 C 368.804 158.780,372.422 157.669,378.303 156.380 C 381.396 155.702,383.210 152.702,381.424 151.220 C 380.513 150.464,375.440 150.278,370.000 150.803 C 367.250 151.068,363.920 151.358,362.600 151.446 L 360.200 151.608 362.073 150.610 C 367.365 147.790,365.536 143.373,359.828 145.191 C 352.878 147.406,349.979 148.618,340.400 153.313 C 336.647 155.153,325.808 161.495,323.801 163.027 C 323.099 163.562,322.316 164.000,322.062 164.000 C 321.808 164.000,321.600 164.141,321.600 164.314 C 321.600 164.486,321.015 164.964,320.300 165.375 C 319.189 166.014,311.288 171.845,308.719 173.922 C 303.976 177.757,301.047 180.474,294.130 187.455 C 284.517 197.158,283.774 197.558,286.556 191.536 C 289.196 185.817,289.600 184.679,289.600 182.949 C 289.600 179.012,287.245 178.667,283.945 182.121 C 282.684 183.440,282.579 183.380,283.256 181.719 C 284.840 177.835,285.923 175.595,288.535 170.800 C 290.976 166.318,290.907 162.800,288.377 162.800 C 287.251 162.800,287.302 162.669,290.678 156.774 C 294.619 149.893,294.693 146.845,290.908 147.287 C 289.122 147.495,289.133 147.472,293.162 142.382 C 297.377 137.057,297.945 135.253,296.082 133.100 C 294.956 131.799,293.841 132.282,290.358 135.574 C 288.511 137.320,286.936 138.569,286.858 138.349 C 286.688 137.868,289.024 133.964,291.617 130.400 C 295.436 125.149,295.814 123.966,294.601 121.063 C 293.542 118.530,291.698 118.166,288.719 119.903 M293.313 120.167 C 293.758 120.504,294.118 121.482,294.270 122.763 L 294.514 124.818 290.690 130.557 C 285.965 137.649,283.917 141.600,284.966 141.600 C 285.058 141.600,287.057 139.710,289.409 137.400 C 294.616 132.287,296.400 131.908,296.400 135.914 C 296.400 136.884,294.617 140.015,293.617 140.800 C 292.606 141.595,287.200 149.410,287.200 150.078 C 287.200 150.668,287.872 150.411,288.954 149.407 C 290.847 147.653,291.462 147.485,292.381 148.472 C 293.662 149.847,293.433 150.583,289.600 157.400 C 285.651 164.422,285.399 165.108,287.133 164.113 C 290.076 162.423,290.750 165.232,288.433 169.538 C 285.172 175.600,283.606 179.009,282.564 182.316 C 281.656 185.200,281.995 185.259,284.433 182.640 C 288.415 178.362,290.755 181.048,288.000 186.735 C 287.340 188.098,286.800 189.287,286.800 189.378 C 286.800 189.470,286.260 190.711,285.600 192.137 C 284.940 193.563,284.400 194.929,284.400 195.173 C 284.400 195.803,286.343 196.626,286.751 196.169 C 293.480 188.627,300.328 181.819,305.831 177.200 C 310.279 173.467,311.766 172.274,314.682 170.096 C 319.918 166.186,328.227 160.745,333.800 157.578 C 341.143 153.405,355.449 146.800,357.144 146.800 C 357.527 146.800,358.011 146.650,358.220 146.467 C 359.797 145.087,363.906 144.885,364.228 146.171 C 364.683 147.983,364.056 148.763,360.847 150.376 C 359.147 151.231,357.518 152.216,357.229 152.565 C 356.658 153.253,356.870 153.243,361.200 152.391 C 366.578 151.332,376.139 150.631,379.000 151.087 C 382.719 151.679,381.726 155.192,377.668 155.798 C 375.348 156.144,367.384 158.746,364.300 160.165 C 361.634 161.392,361.227 162.242,363.500 161.837 C 364.325 161.690,366.305 161.461,367.900 161.327 L 370.800 161.085 370.800 162.498 C 370.800 163.817,368.564 165.598,366.904 165.601 C 366.292 165.602,356.894 169.559,353.200 171.372 L 349.400 173.236 352.200 173.018 C 353.740 172.898,356.485 172.684,358.300 172.541 L 361.600 172.282 361.600 173.712 C 361.600 175.639,360.444 176.486,356.303 177.596 C 351.686 178.834,341.532 182.259,338.845 183.486 C 325.982 189.360,325.264 190.164,334.800 188.019 C 341.298 186.557,356.069 185.080,357.749 185.725 C 358.847 186.146,358.242 189.600,357.070 189.600 C 357.030 189.600,355.738 189.977,354.199 190.437 C 352.659 190.897,350.770 191.423,350.000 191.605 C 349.230 191.788,347.160 192.325,345.400 192.800 C 343.640 193.275,341.570 193.817,340.800 194.005 C 330.382 196.548,327.586 198.083,333.640 197.936 C 338.325 197.822,339.200 198.081,339.200 199.583 C 339.200 201.808,338.190 202.422,333.586 202.995 C 325.456 204.009,317.028 206.429,317.413 207.640 C 318.122 209.875,315.485 211.598,311.346 211.604 C 308.367 211.609,306.148 212.160,302.635 213.767 C 299.906 215.015,298.968 215.062,298.387 213.977 C 297.239 211.830,299.318 209.331,305.600 205.306 C 308.463 203.471,312.145 201.018,312.767 200.531 C 313.248 200.153,312.370 200.004,311.739 200.356 C 311.333 200.583,309.740 201.350,308.200 202.062 C 304.070 203.971,294.542 209.769,293.200 211.188 C 288.812 215.832,284.800 217.455,283.774 215.000 C 282.722 212.480,281.216 213.496,267.955 225.669 C 265.840 227.611,263.635 229.572,263.055 230.029 L 262.000 230.858 262.000 229.693 C 262.000 228.880,262.396 228.177,263.312 227.364 C 272.385 219.311,272.901 218.729,271.875 217.704 C 271.338 217.166,271.057 217.302,269.295 218.950 C 267.075 221.027,266.400 221.237,266.400 219.852 C 266.400 218.972,268.567 216.753,273.400 212.683 C 274.540 211.722,274.610 211.487,274.800 207.940 L 275.000 204.208 277.200 203.900 C 280.875 203.386,281.119 202.597,277.857 201.778 C 276.963 201.554,276.862 201.407,277.266 200.921 C 277.766 200.318,280.372 200.356,282.300 200.995 C 283.039 201.240,283.200 201.145,283.200 200.469 C 283.200 198.957,281.575 197.629,279.200 197.200 C 277.990 196.982,276.590 196.589,276.090 196.328 C 275.382 195.959,274.736 195.968,273.180 196.367 C 271.260 196.859,271.125 196.838,269.816 195.840 C 267.343 193.953,266.318 194.471,267.400 197.062 C 267.730 197.851,268.000 198.535,268.000 198.580 C 268.000 198.625,267.460 198.582,266.800 198.485 C 265.374 198.276,265.251 198.831,266.400 200.291 C 267.444 201.618,267.414 201.998,266.080 204.282 C 265.465 205.337,264.726 206.830,264.440 207.600 C 264.154 208.370,263.772 209.360,263.592 209.800 C 262.637 212.138,261.598 217.575,261.584 220.310 C 261.565 223.922,261.239 223.627,259.472 218.400 C 257.697 213.150,256.811 209.677,255.643 203.400 C 253.965 194.374,254.297 180.768,256.411 172.000 C 260.728 154.094,267.805 140.804,279.385 128.858 C 286.994 121.007,291.069 118.464,293.313 120.167 M276.254 141.705 C 271.931 146.887,265.972 159.088,263.607 167.600 C 263.332 168.590,262.967 169.850,262.796 170.400 C 262.625 170.950,262.274 172.480,262.015 173.800 C 261.756 175.120,261.376 176.851,261.172 177.646 C 260.714 179.426,260.687 181.600,261.123 181.600 C 261.301 181.600,262.486 178.405,263.758 174.500 C 265.946 167.782,268.065 161.571,268.774 159.800 C 270.038 156.640,275.477 144.804,276.044 143.976 C 276.696 143.026,277.470 140.793,277.143 140.805 C 277.065 140.808,276.664 141.213,276.254 141.705 M41.628 150.900 C 41.644 151.395,41.823 152.160,42.027 152.600 C 42.303 153.195,42.336 153.054,42.156 152.050 C 41.992 151.130,42.087 150.590,42.457 150.356 C 42.880 150.088,42.845 150.011,42.300 150.006 C 41.831 150.002,41.609 150.297,41.628 150.900 M64.714 150.700 C 65.156 151.085,66.102 153.069,66.817 155.109 C 67.531 157.149,68.184 158.750,68.267 158.666 C 68.429 158.504,66.158 151.861,65.543 150.700 C 65.339 150.315,64.888 150.000,64.542 150.000 C 64.034 150.000,64.067 150.136,64.714 150.700 M138.319 151.089 C 138.504 152.056,138.559 152.089,138.814 151.389 C 139.117 150.554,138.964 150.000,138.432 150.000 C 138.255 150.000,138.205 150.490,138.319 151.089 M268.960 157.878 C 267.479 161.575,265.498 166.940,264.557 169.800 C 263.213 173.884,262.841 174.682,262.823 173.519 C 262.810 172.704,262.961 171.624,263.158 171.119 C 263.355 170.613,263.737 169.390,264.005 168.400 C 265.546 162.722,271.129 149.586,271.512 150.736 C 271.589 150.967,270.441 154.181,268.960 157.878 M172.928 184.000 C 172.912 202.370,173.012 218.660,173.150 220.200 C 173.388 222.864,173.313 158.643,173.072 153.200 C 173.009 151.770,172.944 165.630,172.928 184.000 M150.591 183.400 C 150.591 201.220,150.640 208.568,150.700 199.730 C 150.760 190.891,150.760 176.311,150.700 167.330 C 150.640 158.348,150.591 165.580,150.591 183.400 M137.415 154.615 C 137.030 155.624,136.804 156.537,136.913 156.646 C 137.021 156.755,137.400 155.993,137.754 154.954 C 138.108 153.915,138.334 153.001,138.257 152.923 C 138.179 152.846,137.800 153.607,137.415 154.615 M42.650 154.400 C 43.025 155.905,43.934 157.884,43.938 157.200 C 43.939 156.870,43.594 155.880,43.171 155.000 C 42.748 154.120,42.514 153.850,42.650 154.400 M120.871 154.845 C 119.351 158.974,117.166 165.700,117.300 165.834 C 117.391 165.924,117.896 164.694,118.422 163.099 C 118.948 161.505,119.874 158.860,120.478 157.222 C 121.083 155.584,121.497 154.164,121.400 154.067 C 121.302 153.969,121.064 154.319,120.871 154.845 M136.200 158.000 C 136.050 158.473,136.017 158.950,136.127 159.060 C 136.237 159.170,136.450 158.873,136.600 158.400 C 136.750 157.927,136.783 157.450,136.673 157.340 C 136.563 157.230,136.350 157.527,136.200 158.000 M135.046 161.446 C 134.692 162.485,134.466 163.399,134.543 163.477 C 134.621 163.554,135.000 162.793,135.385 161.785 C 135.770 160.776,135.996 159.863,135.887 159.754 C 135.779 159.645,135.400 160.407,135.046 161.446 M44.822 160.281 C 44.810 160.546,44.965 161.176,45.167 161.681 C 45.370 162.187,45.644 162.941,45.777 163.357 C 45.910 163.774,46.111 164.022,46.223 163.910 C 46.336 163.797,46.072 162.827,45.636 161.753 C 45.200 160.679,44.834 160.017,44.822 160.281 M69.217 161.423 C 69.208 161.655,69.822 163.365,70.583 165.223 C 71.343 167.080,71.973 168.410,71.983 168.177 C 71.992 167.945,71.378 166.235,70.617 164.377 C 69.857 162.520,69.227 161.190,69.217 161.423 M342.200 163.035 C 332.602 166.784,322.235 172.731,312.600 180.017 C 301.692 188.265,301.872 189.190,312.978 181.951 C 321.084 176.667,324.183 174.707,327.369 172.849 C 332.538 169.835,338.781 166.465,342.885 164.473 C 349.455 161.285,349.021 160.372,342.200 163.035 M133.477 165.877 C 133.100 166.893,132.858 167.791,132.938 167.872 C 133.019 167.952,133.400 167.193,133.785 166.185 C 134.170 165.176,134.412 164.279,134.323 164.190 C 134.235 164.101,133.854 164.860,133.477 165.877 M337.000 166.655 C 333.349 168.547,319.309 176.899,316.096 179.091 C 312.585 181.487,311.860 181.361,315.000 178.901 C 318.622 176.064,327.072 170.894,332.000 168.501 C 333.210 167.913,334.260 167.290,334.333 167.116 C 334.407 166.942,334.812 166.800,335.233 166.800 C 335.655 166.800,336.000 166.620,336.000 166.400 C 336.000 166.180,336.349 166.000,336.776 166.000 C 337.203 166.000,337.664 165.820,337.800 165.600 C 337.936 165.380,338.442 165.201,338.924 165.203 C 339.475 165.204,338.761 165.743,337.000 166.655 M48.023 168.600 C 48.001 169.060,50.328 175.661,50.612 175.945 C 51.017 176.350,50.765 175.217,50.036 173.353 C 49.615 172.279,48.995 170.680,48.656 169.800 C 48.318 168.920,48.033 168.380,48.023 168.600 M72.000 168.910 C 72.000 169.414,74.110 174.823,74.251 174.682 C 74.432 174.501,72.638 169.305,72.267 168.933 C 72.120 168.787,72.000 168.776,72.000 168.910 M131.291 171.700 C 130.610 173.584,130.704 174.094,131.426 172.430 C 131.753 171.677,131.966 170.899,131.901 170.702 C 131.835 170.505,131.560 170.954,131.291 171.700 M114.172 173.443 C 114.036 173.859,113.738 174.701,113.509 175.313 C 113.280 175.925,113.186 176.520,113.301 176.635 C 113.416 176.749,113.800 175.993,114.154 174.954 C 114.508 173.915,114.712 172.979,114.608 172.875 C 114.504 172.771,114.308 173.026,114.172 173.443 M130.400 174.092 C 130.400 174.216,129.590 176.615,128.600 179.422 C 126.802 184.520,126.513 185.531,127.176 184.399 C 127.819 183.303,130.815 174.282,130.606 174.072 C 130.493 173.959,130.400 173.968,130.400 174.092 M262.485 176.400 C 262.388 177.060,262.240 177.600,262.155 177.600 C 262.070 177.600,262.000 177.060,262.000 176.400 C 262.000 175.740,262.149 175.200,262.331 175.200 C 262.513 175.200,262.582 175.740,262.485 176.400 M111.848 180.248 C 111.276 181.949,110.876 183.409,110.960 183.493 C 111.044 183.577,111.580 182.254,112.152 180.552 C 112.724 178.851,113.124 177.391,113.040 177.307 C 112.956 177.223,112.420 178.546,111.848 180.248 M51.645 178.800 C 51.653 179.130,52.006 180.120,52.429 181.000 C 52.852 181.880,53.086 182.162,52.949 181.626 C 52.573 180.161,51.629 178.114,51.645 178.800 M271.729 180.296 C 269.384 183.808,268.630 186.496,269.857 186.967 C 270.679 187.282,270.475 187.636,271.977 183.298 C 273.547 178.759,273.460 177.702,271.729 180.296 M109.877 185.877 C 109.500 186.893,109.258 187.791,109.338 187.872 C 109.419 187.952,109.800 187.193,110.185 186.185 C 110.570 185.176,110.812 184.279,110.723 184.190 C 110.635 184.101,110.254 184.860,109.877 185.877 M270.800 184.524 C 270.800 184.811,270.532 185.396,270.205 185.824 C 269.662 186.534,269.648 186.489,270.045 185.300 C 270.497 183.943,270.800 183.632,270.800 184.524 M79.200 188.185 C 79.200 188.770,81.757 195.577,81.917 195.417 C 82.003 195.330,81.494 193.671,80.785 191.730 C 79.519 188.263,79.200 187.551,79.200 188.185 M55.600 189.389 C 55.600 189.963,58.910 198.823,59.066 198.667 C 59.222 198.511,56.105 189.571,55.781 189.248 C 55.682 189.148,55.600 189.212,55.600 189.389 M107.889 191.084 C 107.772 191.478,107.191 193.117,106.599 194.727 C 106.006 196.337,105.593 197.726,105.681 197.814 C 105.769 197.902,106.431 196.344,107.152 194.352 C 107.873 192.360,108.382 190.648,108.282 190.549 C 108.183 190.450,108.006 190.690,107.889 191.084 M123.000 194.800 C 122.850 195.273,122.817 195.750,122.927 195.860 C 123.037 195.970,123.250 195.673,123.400 195.200 C 123.550 194.727,123.583 194.250,123.473 194.140 C 123.363 194.030,123.150 194.327,123.000 194.800 M121.008 200.675 C 119.032 206.471,119.076 206.322,119.580 205.530 C 120.199 204.558,122.876 196.742,122.663 196.530 C 122.564 196.431,121.819 198.296,121.008 200.675 M105.000 199.200 C 104.850 199.673,104.817 200.150,104.927 200.260 C 105.037 200.370,105.250 200.073,105.400 199.600 C 105.550 199.127,105.583 198.650,105.473 198.540 C 105.363 198.430,105.150 198.727,105.000 199.200 M59.228 199.292 C 59.182 199.765,60.486 202.848,60.658 202.675 C 60.745 202.588,60.466 201.725,60.037 200.758 C 59.608 199.791,59.244 199.131,59.228 199.292 M86.176 207.400 C 86.338 207.840,87.014 209.695,87.680 211.521 C 88.346 213.348,88.964 214.770,89.052 214.681 C 89.277 214.456,86.760 207.490,86.277 207.000 C 86.017 206.736,85.982 206.873,86.176 207.400 M99.232 215.232 C 98.530 217.243,98.019 218.953,98.098 219.031 C 98.177 219.110,98.831 217.544,99.552 215.552 C 100.273 213.560,100.783 211.850,100.686 211.753 C 100.589 211.655,99.934 213.221,99.232 215.232 M64.012 212.400 C 64.012 212.730,64.187 213.270,64.400 213.600 C 64.745 214.133,64.788 214.133,64.788 213.600 C 64.788 213.270,64.613 212.730,64.400 212.400 C 64.055 211.867,64.012 211.867,64.012 212.400 M310.700 215.429 C 310.095 215.757,309.600 216.189,309.600 216.388 C 309.600 216.587,309.105 216.717,308.500 216.675 C 306.191 216.517,307.266 220.834,310.000 222.700 C 312.211 224.209,314.536 223.958,316.496 221.998 C 320.774 217.720,326.698 224.945,322.795 229.679 C 319.373 233.832,314.916 232.590,307.818 225.507 C 300.469 218.174,297.478 217.438,287.000 220.385 C 282.757 221.578,278.622 222.353,276.358 222.379 C 274.448 222.401,272.355 223.938,265.039 230.691 L 263.078 232.501 263.165 240.002 C 263.234 246.042,263.129 247.795,262.626 248.999 L 262.002 250.493 259.470 250.222 C 256.057 249.857,254.396 252.899,257.191 254.395 C 259.020 255.374,265.200 254.708,265.200 253.532 C 265.200 253.291,265.923 251.673,266.807 249.939 C 267.691 248.204,268.665 245.821,268.972 244.643 C 269.971 240.809,270.929 239.964,272.083 241.900 C 272.980 243.405,275.189 245.480,276.835 246.363 C 280.099 248.113,278.115 251.116,274.520 249.865 C 272.427 249.137,271.515 252.099,273.256 253.968 C 274.055 254.825,279.167 255.210,280.240 254.494 C 282.732 252.830,283.568 241.600,281.200 241.600 C 280.751 241.600,279.600 239.489,279.600 238.667 C 279.600 238.352,280.635 237.593,281.900 236.982 C 283.165 236.370,284.978 235.342,285.928 234.696 C 288.005 233.286,287.911 233.212,288.663 236.844 C 289.364 240.232,290.382 242.416,292.207 244.450 C 294.501 247.007,292.466 250.780,289.091 250.225 C 285.707 249.668,284.475 250.250,284.958 252.176 C 285.504 254.352,286.503 254.843,290.116 254.716 L 293.400 254.600 296.700 249.685 C 300.417 244.151,300.466 243.980,298.786 242.446 C 297.458 241.233,296.913 239.202,297.497 237.649 C 297.833 236.757,297.925 236.838,298.950 238.934 C 300.252 241.595,302.885 244.041,305.274 244.811 C 307.374 245.487,307.671 245.857,307.347 247.394 C 306.911 249.464,305.998 250.500,304.831 250.250 C 301.274 249.489,301.288 249.488,300.799 250.402 C 299.372 253.069,301.082 254.800,305.145 254.800 C 308.593 254.800,308.722 254.683,310.556 249.904 C 313.248 242.886,313.182 241.278,310.147 239.977 C 308.322 239.195,308.551 239.755,307.212 232.801 C 306.768 230.497,306.766 230.498,309.061 232.091 C 310.127 232.832,311.495 233.654,312.100 233.919 C 312.705 234.183,313.649 234.610,314.198 234.867 C 317.611 236.462,323.747 234.812,325.815 231.743 C 329.687 225.998,325.932 217.600,319.491 217.600 C 318.523 217.600,317.736 217.215,316.628 216.200 C 314.904 214.621,312.714 214.336,310.700 215.429 M89.245 215.600 C 89.253 215.930,89.606 216.920,90.029 217.800 C 90.452 218.680,90.686 218.962,90.549 218.426 C 90.173 216.961,89.229 214.914,89.245 215.600 M314.919 215.664 C 315.395 215.918,316.106 216.536,316.499 217.036 C 317.018 217.694,317.814 218.019,319.396 218.217 C 329.813 219.518,328.771 234.800,318.265 234.800 C 314.692 234.800,312.687 233.900,306.694 229.606 C 305.886 229.027,305.872 229.052,306.136 230.606 C 306.285 231.483,306.588 233.442,306.811 234.960 C 307.415 239.093,308.265 240.282,311.354 241.318 C 311.809 241.470,311.719 245.782,311.242 246.702 C 311.044 247.086,310.278 248.883,309.541 250.697 L 308.200 253.993 304.908 253.997 C 301.757 254.000,301.605 253.958,301.372 253.032 C 300.790 250.711,301.383 250.346,304.649 251.019 C 306.179 251.334,307.247 250.355,307.955 247.991 C 308.596 245.854,308.086 245.026,305.627 244.209 C 303.112 243.374,300.915 241.247,299.410 238.192 C 297.912 235.151,298.032 235.269,297.367 236.177 C 296.283 237.660,296.635 240.984,298.046 242.592 C 299.556 244.311,299.383 244.960,296.306 249.125 C 295.219 250.596,294.033 252.301,293.670 252.914 C 292.648 254.642,286.478 254.441,285.886 252.661 C 285.308 250.923,286.126 250.320,288.274 250.900 C 290.337 251.456,291.500 251.012,292.912 249.127 C 294.647 246.813,294.615 246.338,292.558 243.812 C 290.576 241.378,289.200 238.348,289.200 236.415 C 289.200 235.451,288.634 233.566,288.127 232.841 C 288.066 232.754,287.338 233.129,286.508 233.675 C 285.679 234.221,283.605 235.355,281.900 236.195 C 278.116 238.059,277.833 239.447,280.738 241.896 C 282.412 243.307,282.104 251.079,280.279 253.500 C 279.368 254.708,273.752 254.133,273.189 252.774 C 272.417 250.908,273.207 250.315,275.695 250.893 C 279.903 251.870,280.645 248.102,276.751 245.530 C 274.997 244.372,272.789 241.970,271.382 239.691 C 270.887 238.889,268.383 242.982,268.407 244.553 C 268.411 244.799,267.466 247.025,266.307 249.501 L 264.200 254.002 260.600 253.901 L 257.000 253.800 256.872 252.242 L 256.745 250.683 258.940 250.941 C 263.431 251.469,263.800 250.674,263.800 240.475 L 263.800 232.751 265.802 230.875 C 273.593 223.576,274.696 222.845,277.963 222.818 C 279.167 222.808,282.889 222.068,286.363 221.149 C 297.765 218.131,299.747 218.588,307.400 226.000 C 315.398 233.746,320.456 234.887,323.680 229.672 C 326.902 224.459,320.656 216.967,316.609 221.191 C 314.844 223.033,313.204 223.416,311.087 222.480 C 308.801 221.468,306.829 217.600,308.600 217.600 C 308.930 217.600,309.200 217.741,309.200 217.914 C 309.200 218.408,311.435 219.600,312.362 219.600 C 313.615 219.600,313.357 218.682,311.912 218.000 C 310.233 217.207,310.106 216.584,311.475 215.842 C 312.843 215.100,313.776 215.052,314.919 215.664 M65.645 216.800 C 65.653 217.130,66.006 218.120,66.429 219.000 C 66.852 219.880,67.086 220.162,66.949 219.626 C 66.573 218.161,65.629 216.114,65.645 216.800 M114.600 218.400 C 114.450 218.873,114.417 219.350,114.527 219.460 C 114.637 219.570,114.850 219.273,115.000 218.800 C 115.150 218.327,115.183 217.850,115.073 217.740 C 114.963 217.630,114.750 217.927,114.600 218.400 M232.106 223.631 C 231.686 228.597,230.661 233.865,229.428 237.400 C 229.258 237.888,229.375 237.810,229.729 237.200 C 231.136 234.772,233.004 223.949,232.731 219.800 C 232.645 218.489,232.430 219.809,232.106 223.631 M97.400 220.400 C 97.250 220.873,97.217 221.350,97.327 221.460 C 97.437 221.570,97.650 221.273,97.800 220.800 C 97.950 220.327,97.983 219.850,97.873 219.740 C 97.763 219.630,97.550 219.927,97.400 220.400 M212.600 222.400 C 212.445 223.528,212.408 224.541,212.518 224.651 C 212.628 224.761,212.845 223.928,213.000 222.800 C 213.155 221.672,213.192 220.659,213.082 220.549 C 212.972 220.439,212.755 221.272,212.600 222.400 M150.886 222.000 C 150.883 222.770,151.024 223.850,151.200 224.400 C 151.650 225.804,151.665 224.337,151.223 222.200 L 150.892 220.600 150.886 222.000 M92.201 223.574 C 92.656 225.050,93.567 227.053,93.578 226.600 C 93.593 225.989,92.591 223.255,92.224 222.907 C 92.046 222.738,92.036 223.038,92.201 223.574 M173.646 224.800 C 173.665 225.130,173.824 225.850,174.000 226.400 L 174.320 227.400 174.354 226.400 C 174.373 225.850,174.213 225.130,174.000 224.800 C 173.655 224.267,173.616 224.267,173.646 224.800 M68.802 225.033 C 68.804 225.497,71.158 232.091,71.412 232.345 C 71.831 232.764,71.539 231.691,70.348 228.429 C 69.095 224.998,68.798 224.347,68.802 225.033 M111.077 228.277 C 110.700 229.293,110.458 230.191,110.538 230.272 C 110.619 230.352,111.000 229.593,111.385 228.585 C 111.770 227.576,112.012 226.679,111.923 226.590 C 111.835 226.501,111.454 227.260,111.077 228.277 M211.829 227.429 C 211.681 228.015,211.638 228.572,211.732 228.666 C 211.827 228.760,212.024 228.358,212.171 227.771 C 212.319 227.185,212.362 226.628,212.268 226.534 C 212.173 226.440,211.976 226.842,211.829 227.429 M93.625 227.400 C 93.625 227.620,93.890 228.149,94.213 228.576 C 94.536 229.004,94.800 229.173,94.800 228.953 C 94.800 228.733,94.536 228.204,94.213 227.776 C 93.890 227.349,93.625 227.180,93.625 227.400 M151.680 228.200 C 151.680 228.640,151.824 229.450,152.000 230.000 C 152.254 230.792,152.320 230.833,152.320 230.200 C 152.320 229.760,152.176 228.950,152.000 228.400 C 151.746 227.608,151.680 227.567,151.680 228.200 M174.428 228.676 C 174.518 229.715,175.144 230.596,175.172 229.724 C 175.187 229.242,175.020 228.736,174.800 228.600 C 174.580 228.464,174.413 228.498,174.428 228.676 M210.219 232.262 C 209.450 234.025,208.335 235.630,206.836 237.130 C 205.606 238.361,205.140 238.986,205.800 238.520 C 208.189 236.833,212.303 230.569,211.529 229.796 C 211.439 229.705,210.849 230.815,210.219 232.262 M108.611 235.308 C 107.765 237.778,106.983 240.070,106.873 240.400 C 106.763 240.730,106.786 240.900,106.924 240.779 C 107.286 240.461,110.492 231.159,110.305 230.972 C 110.219 230.886,109.457 232.837,108.611 235.308 M175.200 231.013 C 175.200 233.570,182.706 240.824,185.321 240.795 C 185.585 240.792,184.823 240.297,183.628 239.695 C 180.840 238.290,177.385 234.919,176.362 232.607 C 175.652 231.003,175.200 230.383,175.200 231.013 M152.434 232.000 C 152.446 232.330,152.611 232.960,152.800 233.400 L 153.144 234.200 153.166 233.400 C 153.178 232.960,153.013 232.330,152.800 232.000 C 152.455 231.467,152.415 231.467,152.434 232.000 M72.412 235.200 C 72.412 235.530,72.587 236.070,72.800 236.400 C 73.145 236.933,73.188 236.933,73.188 236.400 C 73.188 236.070,73.013 235.530,72.800 235.200 C 72.455 234.667,72.412 234.667,72.412 235.200 M154.804 238.700 C 154.815 239.541,159.898 245.667,162.189 247.600 C 162.841 248.150,161.982 247.097,160.280 245.260 C 158.579 243.422,156.722 241.127,156.155 240.160 C 155.160 238.461,154.796 238.068,154.804 238.700 M227.857 240.209 C 227.301 241.205,227.018 241.912,227.229 241.782 C 227.648 241.523,229.323 238.400,229.042 238.400 C 228.947 238.400,228.413 239.214,227.857 240.209 M202.800 240.000 C 202.030 240.422,201.544 240.774,201.720 240.783 C 202.144 240.805,204.400 239.632,204.400 239.390 C 204.400 239.128,204.377 239.137,202.800 240.000 M191.115 242.117 C 192.311 242.314,194.311 242.316,195.715 242.120 C 198.007 241.801,197.842 241.774,193.600 241.771 C 189.639 241.768,189.294 241.816,191.115 242.117 M222.200 247.105 C 220.220 249.016,219.140 250.193,219.800 249.720 C 221.693 248.366,226.538 243.555,225.949 243.615 C 225.867 243.624,224.180 245.194,222.200 247.105 M76.412 246.000 C 76.412 246.330,76.587 246.870,76.800 247.200 C 77.145 247.733,77.188 247.733,77.188 247.200 C 77.188 246.870,77.013 246.330,76.800 246.000 C 76.455 245.467,76.412 245.467,76.412 246.000 M103.246 249.867 C 103.221 250.124,103.084 250.664,102.941 251.067 C 102.740 251.636,102.794 251.697,103.179 251.342 C 103.452 251.091,103.589 250.551,103.484 250.142 C 103.379 249.734,103.272 249.610,103.246 249.867 M78.022 250.267 C 77.979 251.192,79.583 254.400,80.086 254.394 C 80.465 254.389,80.477 254.309,80.131 254.089 C 79.873 253.925,79.298 252.893,78.853 251.795 C 78.408 250.698,78.034 250.010,78.022 250.267 M166.400 250.583 C 166.400 250.857,170.012 252.921,170.186 252.747 C 170.268 252.665,169.450 252.103,168.368 251.499 C 167.286 250.895,166.400 250.483,166.400 250.583 M216.484 251.466 C 215.540 252.035,214.848 252.581,214.946 252.679 C 215.142 252.875,218.400 250.909,218.400 250.595 C 218.400 250.315,218.372 250.328,216.484 251.466 M212.400 253.600 C 211.630 254.022,211.113 254.374,211.251 254.383 C 211.665 254.411,214.400 253.205,214.400 252.995 C 214.400 252.646,213.825 252.820,212.400 253.600 M178.600 255.600 C 178.736 255.820,179.242 255.987,179.724 255.972 C 180.569 255.945,180.571 255.931,179.800 255.600 C 178.699 255.127,178.308 255.127,178.600 255.600 M182.400 256.379 C 182.730 256.604,183.525 256.791,184.167 256.794 C 185.704 256.802,185.384 256.570,183.400 256.238 C 182.254 256.046,181.970 256.086,182.400 256.379 M201.800 256.400 L 200.600 256.705 201.800 256.747 C 202.460 256.769,203.270 256.613,203.600 256.400 C 204.343 255.920,203.687 255.920,201.800 256.400 M190.700 257.096 C 192.075 257.174,194.325 257.174,195.700 257.096 C 197.075 257.018,195.950 256.954,193.200 256.954 C 190.450 256.954,189.325 257.018,190.700 257.096 " stroke="none" fill="#9bc4d9" fill-rule="evenodd"></path><path id="path4" d="M42.446 150.363 C 41.817 150.762,41.991 151.850,43.189 155.000 C 43.608 156.100,44.677 159.011,45.565 161.470 C 46.453 163.928,47.651 167.168,48.228 168.670 C 48.805 170.171,49.604 172.300,50.003 173.400 C 50.403 174.500,51.629 177.830,52.729 180.800 C 55.359 187.904,57.622 194.079,59.400 199.000 C 60.194 201.200,60.997 203.360,61.183 203.800 C 61.370 204.240,61.917 205.680,62.400 207.000 C 62.883 208.320,63.422 209.760,63.599 210.200 C 63.775 210.640,64.104 211.540,64.329 212.200 C 64.554 212.860,66.299 217.630,68.205 222.800 C 70.111 227.970,72.015 233.145,72.435 234.300 C 74.577 240.182,74.905 241.061,75.237 241.800 C 75.434 242.240,76.298 244.580,77.156 247.000 C 79.337 253.147,79.588 253.744,80.125 254.086 C 80.386 254.252,85.320 254.391,91.090 254.394 L 101.579 254.400 102.134 253.300 C 102.924 251.732,103.332 249.871,102.816 250.190 C 102.587 250.332,102.400 250.716,102.400 251.043 C 102.400 251.371,102.125 252.171,101.790 252.820 L 101.179 254.000 90.999 254.000 C 79.202 254.000,80.469 254.507,78.455 248.981 C 77.127 245.338,76.076 242.557,75.589 241.400 C 75.404 240.960,74.861 239.430,74.383 238.000 C 73.513 235.402,69.462 224.512,68.803 223.000 C 68.611 222.560,67.889 220.580,67.198 218.600 C 65.889 214.848,64.552 211.170,63.999 209.800 C 63.080 207.524,61.106 202.206,60.064 199.200 C 59.035 196.232,57.424 191.920,56.402 189.400 C 56.224 188.960,55.717 187.610,55.276 186.400 C 54.835 185.190,52.919 179.970,51.018 174.800 C 49.117 169.630,47.403 164.950,47.209 164.400 C 47.015 163.850,45.956 160.970,44.856 158.000 C 43.755 155.030,42.798 152.240,42.728 151.800 C 42.603 151.019,42.854 150.998,53.486 150.894 L 64.373 150.787 64.931 151.894 C 65.238 152.502,66.877 156.780,68.574 161.400 C 73.071 173.647,73.247 174.124,73.602 175.000 C 74.572 177.394,76.150 181.627,76.659 183.200 C 76.979 184.190,77.389 185.360,77.570 185.800 C 77.752 186.240,78.568 188.400,79.384 190.600 C 80.199 192.800,81.014 194.960,81.194 195.400 C 81.375 195.840,81.917 197.280,82.400 198.600 C 82.883 199.920,83.422 201.360,83.599 201.800 C 83.775 202.240,84.104 203.140,84.331 203.800 C 84.964 205.648,91.573 223.550,92.436 225.753 C 92.856 226.828,93.200 227.925,93.200 228.191 C 93.200 228.458,93.550 228.993,93.977 229.379 C 94.747 230.076,96.000 228.375,96.000 226.631 C 96.000 226.372,96.143 225.989,96.318 225.780 C 96.493 225.571,96.865 224.680,97.145 223.800 C 97.424 222.920,97.804 221.840,97.989 221.400 C 98.741 219.612,99.786 216.708,101.661 211.200 C 102.747 208.010,103.790 205.040,103.979 204.600 C 104.168 204.160,104.717 202.720,105.200 201.400 C 105.683 200.080,106.228 198.640,106.411 198.200 C 106.594 197.760,107.821 194.340,109.138 190.600 C 110.455 186.860,112.280 181.730,113.195 179.200 C 114.110 176.670,115.303 173.250,115.846 171.600 C 116.389 169.950,116.988 168.240,117.176 167.800 C 118.068 165.719,118.489 164.356,118.299 164.165 C 118.184 164.051,117.818 164.731,117.485 165.678 C 114.111 175.271,109.404 188.327,108.787 189.800 C 108.603 190.240,107.793 192.490,106.987 194.800 C 106.181 197.110,105.252 199.720,104.923 200.600 C 104.594 201.480,104.062 203.010,103.742 204.000 C 103.422 204.990,103.006 206.160,102.819 206.600 C 102.321 207.769,101.058 211.224,99.385 216.000 C 94.291 230.534,94.575 230.096,93.024 225.800 C 92.626 224.700,91.617 222.000,90.780 219.800 C 89.944 217.600,88.334 213.280,87.204 210.200 C 86.073 207.120,83.794 200.910,82.140 196.400 C 79.138 188.221,77.013 182.515,76.401 181.000 C 75.954 179.892,74.712 176.529,73.005 171.800 C 72.210 169.600,71.040 166.450,70.405 164.800 C 69.769 163.150,68.402 159.460,67.367 156.600 C 64.776 149.438,65.959 149.999,53.456 150.006 C 47.705 150.009,42.751 150.170,42.446 150.363 M123.116 150.691 C 122.577 151.304,121.586 153.880,118.942 161.538 C 118.612 162.494,118.441 163.375,118.562 163.495 C 118.682 163.616,118.864 163.464,118.966 163.157 C 119.067 162.851,119.770 160.890,120.528 158.800 C 121.287 156.710,122.145 154.280,122.437 153.400 C 123.330 150.704,123.020 150.800,130.849 150.800 C 138.984 150.800,138.489 150.492,136.958 154.602 C 135.993 157.191,132.748 166.290,131.345 170.338 C 131.014 171.294,130.823 172.156,130.921 172.254 C 131.323 172.656,138.108 153.292,138.158 151.600 L 138.200 150.200 130.970 150.091 C 124.469 149.993,123.677 150.054,123.116 150.691 M151.300 150.265 C 150.647 150.528,150.566 217.655,151.213 222.600 C 151.849 227.456,152.431 230.849,152.894 232.400 C 157.639 248.280,171.625 256.783,193.000 256.785 C 214.810 256.786,228.391 247.236,231.374 229.800 C 232.969 220.475,233.514 151.348,232.000 150.391 C 230.870 149.677,213.724 149.900,213.443 150.633 C 213.309 150.981,213.197 167.136,213.193 186.533 C 213.185 222.872,213.131 224.319,211.566 229.800 C 209.982 235.347,206.599 238.881,200.600 241.255 C 192.345 244.522,179.836 240.337,176.140 233.073 C 173.113 227.125,172.801 222.475,172.800 183.343 C 172.800 153.751,172.737 150.461,172.167 150.243 C 171.413 149.953,152.021 149.974,151.300 150.265 M172.537 186.500 C 172.689 220.699,172.784 223.590,173.917 228.704 C 177.896 246.667,207.476 247.672,212.080 230.000 C 213.548 224.363,213.584 223.335,213.592 186.692 L 213.600 150.785 222.700 150.892 L 231.800 151.000 231.795 187.600 C 231.789 227.675,231.791 227.637,229.349 235.461 C 226.950 243.144,220.449 249.614,211.200 253.524 C 202.892 257.036,187.838 257.387,176.600 254.331 C 165.209 251.234,155.283 241.506,153.202 231.400 C 152.930 230.080,152.555 228.460,152.368 227.800 C 151.540 224.874,151.200 211.627,151.200 182.307 L 151.200 150.800 161.790 150.800 L 172.379 150.800 172.537 186.500 M128.899 177.100 C 128.006 179.465,126.890 182.570,126.419 184.000 C 125.948 185.430,125.391 186.913,125.181 187.295 C 124.971 187.677,124.800 188.341,124.800 188.771 C 124.800 189.201,124.620 189.664,124.400 189.800 C 124.180 189.936,124.000 190.399,124.000 190.829 C 124.000 191.259,123.841 191.923,123.647 192.305 C 122.913 193.748,121.668 197.051,119.389 203.600 C 117.609 208.714,116.454 211.935,114.797 216.400 C 114.103 218.270,113.020 221.330,112.389 223.200 C 111.759 225.070,110.711 228.040,110.060 229.800 C 106.120 240.459,103.192 248.855,103.212 249.441 C 103.238 250.216,104.004 248.300,106.582 241.000 C 108.059 236.820,110.221 230.790,111.387 227.600 C 112.554 224.410,114.085 220.090,114.790 218.000 C 115.495 215.910,116.221 213.840,116.403 213.400 C 117.043 211.856,120.107 203.413,121.619 199.029 C 122.460 196.593,123.715 193.070,124.409 191.200 C 125.103 189.330,125.818 187.350,125.998 186.800 C 126.178 186.250,127.260 183.190,128.404 180.000 C 130.780 173.369,130.963 172.800,130.708 172.800 C 130.606 172.800,129.792 174.735,128.899 177.100 " stroke="none" fill="#7c7c7c" fill-rule="evenodd"></path></g></svg>